<?xml version="1.0" encoding="utf-8"?>
<!-- Generator: Adobe Illustrator 23.0.2, SVG Export Plug-In . SVG Version: 6.00 Build 0)  -->
<svg version="1.1" id="Calque_1" xmlns="http://www.w3.org/2000/svg" xmlns:xlink="http://www.w3.org/1999/xlink" x="0px" y="0px"
	 viewBox="0 0 527 710.09" style="enable-background:new 0 0 527 710.09;" xml:space="preserve">
<g transform="translate(0.000000,709.000000) scale(0.100000,-0.100000)">
	<path d="M3659,6943.08c-217-152-603-412-706-476c-38-23-221-128-408-233c-494-278-617-358-660-429c-11-18-30-48-43-67
		c-30-46-26-83,10-87c32-4,163,67,823,443c617,352,1071,619,1122,662c103,84,143,245,75,306C3855,7078.08,3842,7070.08,3659,6943.08
		z"/>
	<path d="M4606,6889.08c-2-8-23-75-46-148l-41-132l20-143c53-365,269-2010,350-2662c104-832,113-926,112-1190c-1-132-8-442-16-689
		c-9-247-14-450-12-452c6-7,111,27,159,52c33,17,54,36,67,62c53,104,76,385,67,817c-8,398-20,539-177,1995
		c-143,1335-159,1492-153,1516c9,35,40,30,103-16c58-42,71-43,71-5c0,103-251,675-378,861C4671,6845.08,4613,6907.08,4606,6889.08z"
		/>
	<path d="M3115,5837.08c2-13,19-81,36-153c41-167,49-268,24-295c-10-11-24-20-31-20c-22,0-69,105-123,278c-55,177-68,209-81,196
		c-5-5-10-131-12-281c-2-149-6-275-10-279c-12-11-63,15-97,50c-38,39-50,85-50,176c1,118-56,290-95,290c-20,0-22-47-15-355l6-269
		l54-48c69-61,166-95,209-73c21,11,71,74,107,134c1,2,14-6,29-18c65-51,190-52,238-2c28,29,61,112,72,179c8,51-13,116-78,244
		c-75,148-156,268-180,268C3113,5859.08,3112,5849.08,3115,5837.08z"/>
	<path d="M3384,4665.08c-25-18-35-52-69-221c-39-196-38-206,33-375c33-80,86-228,117-330s95-304,142-450c46-146,118-369,159-496
		s74-245,74-261c0-38-39-79-99-106c-62-27-170-57-208-57c-53,0-271,58-303,80c-60,43-149,152-189,233c-59,120-118,312-402,1312
		c-84,297-154,542-156,544c-1,2-13-3-27-12c-61-40-60-107,14-697c61-485,105-881,121-1086l13-151l-27-46c-80-136-323-334-470-383
		c-111-37-263,11-386,123c-49,44-71,74-106,147c-57,118-94,232-102,309c-8,88,12,271,62,577c69,418,78,566,40,640
		c-59,114-199-38-394-427c-43-88-84-177-90-199c-16-62-60-376-76-555c-24-255-48-372-107-521c-61-153-77-180-143-230
		c-70-53-115-53-178,2c-54,48-69,84-127,302c-50,187-65,372-55,665l7,192l-43,48c-24,26-45,50-46,52c-8,12-14-36-43-394
		c-36-435-35-509,6-669c48-192,128-340,250-463c89-91,161-127,237-121c79,6,104,29,154,138c25,52,60,120,78,150
		c68,113,106,296,195,950c22,162,45,313,51,335c13,50,60,155,68,155c10,0-6-411-19-485c-17-95-15-307,5-439c88-586,370-889,744-801
		c277,66,495,362,616,840c33,130,33,130,46,95c28-79,132-271,190-354c219-307,509-412,779-280c208,103,340,369,340,691
		c0,157-79,502-170,738c-34,88-88,236-121,329c-71,203-96,340-56,308c7-5,40-20,75-32c80-29,91-20,56,46c-61,116-361,581-407,632
		C3413,4683.08,3411,4683.08,3384,4665.08z"/>
</g>
</svg>
