<?xml version="1.0" encoding="utf-8"?>
<!-- Generator: Adobe Illustrator 23.0.2, SVG Export Plug-In . SVG Version: 6.00 Build 0)  -->
<svg version="1.1" id="Calque_1" xmlns="http://www.w3.org/2000/svg" xmlns:xlink="http://www.w3.org/1999/xlink" x="0px" y="0px"
	 viewBox="0 0 388.8 225" style="enable-background:new 0 0 388.8 225;" xml:space="preserve">
<style type="text/css">
	.st0{fill-rule:evenodd;clip-rule:evenodd;fill:#672C16;}
</style>
<g>
	<path class="st0" d="M369.3,166.7c-1.1,4.1,7.8,2.5,5.7-2.4c-2.1-4.9-11-3-11.2,2.4c-0.2,5.9,5.1,8.7,10.4,7.2
		c8-2.2,11.2-11.5,5-16.5c-6-4.9-22.9,2.5-27.2,3.7c-10.3,2.8-18.2-7-23.8-3.4c-8.7,5.5-31.1,13.7-35.2,22.7c-1,2.1,0.5,3.7,1.7,5.9
		c1.5,2.9,1.2,6-2.1,8.1c-2.2,1.4-6.2,1-8.5-0.6c-3.1-2.1-2.6-7,1.1-8.3c2-0.7,4.8,0.3,5.6,1.9c1.2,2.4,0.3,5.6-2.1,4.4
		c-0.7-0.3,1.8-1.3,1.2-2.6c-1.2-2.6-3.9-1.7-4.8-0.3c-0.5,0.8-0.2,2.3,0.6,3.1c1.7,1.7,6.8,1.8,7.2-2.4c0.4-4.5-4.4-5.8-7.8-4.6
		c-5,1.7-4.3,6.5-1.1,9.4c2.5,2.2,7.1,2.7,10.2,0.7c2.7-1.7,4.3-6.8,0.3-10.8c-8-8.1,43.9-11.4,36-17.9c-3.7-3.1-3.2-6.4-2.1-7.5
		c4.1-4.1,12.3,5.5,17.7,6.9c5.7,1.8,10.2-5,16.7-7.8c8.8-3.8,18.8-3.2,18.8,6.1c0,5.2-7.1,9.6-12.5,7.6
		C361.4,169,368.6,158.9,369.3,166.7L369.3,166.7z M295.3,178.8c3.7-6.9,28.2-17.8,29.8-16.7c0.4,0.3,0.7,2.3,1.7,3.7
		c1.1,1.5,3,2.5,0.2,3.5c-2.9,0.9-13.5,3.9-21.3,6.2C299.2,177.4,295.2,179,295.3,178.8z"/>
	<g>
		<path class="st0" d="M183.3,203.8c-0.9,1.6,2.8,3.7,4.5,3.9c5.1,0.8-1.3-8.3-8.7-8.1c-18.2,0.4,50.3,36.4,12.3,6.7
			c-16.7-13-3.6-52.8-24.5-25.7c-4.7,6.1-9.4,13.8-15.1,19.4c-6.3,6.2-13.7,8.8-20.8,7c-7.8-1.9-15-9-12.9-20.2
			c1.2-6.6,6.1-12.4,15.1-12.8c1.1-0.1,1.4-1.1,0.1-1.3c-17.4,0-19.6,19.5-13.2,28c4.7,6.3,15.2,11.2,27.2,4.3
			c7.8-4.4,13.4-12.5,19.2-20.1c20.8-27.2,7.8,8.5,25,21.8c25.7,19.9,2.1,8.6-9.4,0.2c-5-3.7-7.4-7.3-2.9-6.8c1.3,0.2,4,0.7,6,1.9
			c3.8,2.3,6.5,5.8,2.5,5.2c-1.1-0.2-2.8-1.3-3.8-2.1c-0.3-0.2,0.9,0.5,1.8,0.5c1.7,0,1.4-1.7,0.4-2.4
			C185.1,202.8,183.7,203,183.3,203.8z"/>
		<g>
			<path class="st0" d="M250.2,172.7c-9-0.4-13.2,3.7-12.2,5.4c1.7,3.1,10.3-0.2,12.4-1.4c4.3-2.6,8.2-6.9,3-9
				c-5.7-2.4-13.1,0.4-17.4,4.1c-6.4,5.6-3.9,11.5,4.5,11.9c5.9,0.3,12.8-2.5,17.1-6.5c5.6-5.2,4.5-12.5-1.6-16.6
				c-6.6-4.5-16.8-1.9-22.8,2.2c-13.9,9.5-6.5,26.4,7.3,31.5c10.7,4,26,1.3,35.2-3.6c13.5-7.2,17.6-21.8,9.1-28.1
				c-7.4-5.5-16.8,3.1-13.8,9.1c1.3,2.6,4.5,3.7,7.2,3.2c3.3-0.5,5.2-2.9,5-5.5c-0.2-2.2-2.2-4.7-5-4.6c-2.9,0.1-5.9,2.7-5.2,5.8
				c0.5,2,2.5,3.1,4.2,3c3.8-0.2,3.9-3.7,2.7-4.9c-2.4-2.3-5,0.7-5,0.5c0.4-2.9,6-3.3,6.9-0.1c0.9,3-1.5,5.4-4.1,5.7
				c-2.4,0.2-5-1.4-5.1-4.5c-0.1-3.1,2.4-6.7,7.3-7c3.9-0.3,7.6,4.1,8,6.8c1.7,10.7-12,20.8-27,23.5c-15.5,2.8-32.1-3.3-33.9-15.9
				c-1.1-8.2,3.5-13.2,9-15.9c6.4-3.2,14.9-4.1,20.2-0.1c2.4,1.8,4.2,4.5,4.6,7.3c1.4,11.4-24.9,19.8-27.1,9.9
				c-0.5-2.1,1.1-4.4,3.2-6.3c6.8-5.7,16.4-4.7,17.6-2.3c0.8,1.6-1.6,4.5-5.1,6.3c-7,3.6-12.5-1.1-0.4-2.6
				C253.6,173.3,252.5,173,250.2,172.7z"/>
			<path class="st0" d="M199,203.8c0.9,1.6-2.8,3.7-4.5,3.9c-5.1,0.8,1.3-8.3,8.7-8.1c18.2,0.4-50.3,36.4-12.3,6.7
				c16.7-13,3.6-52.8,24.5-25.7c4.7,6.1,9.4,13.8,15.1,19.4c6.3,6.2,13.7,8.8,20.8,7c7.8-1.9,15-9,12.9-20.2
				c-1.2-6.6-6.1-12.4-15.1-12.8c-1.1-0.1-1.4-1.1-0.1-1.3c17.4,0,19.6,19.5,13.2,28c-4.7,6.3-15.2,11.2-27.2,4.3
				c-7.8-4.4-13.4-12.5-19.2-20.1c-20.8-27.2-7.8,8.5-25,21.8c-25.7,19.9-2.1,8.6,9.4,0.2c5.1-3.7,7.4-7.3,2.9-6.8
				c-1.3,0.2-4,0.7-6,1.9c-3.8,2.3-6.5,5.8-2.5,5.2c1.1-0.2,2.8-1.3,3.8-2.1c0.3-0.2-0.9,0.5-1.8,0.5c-1.7,0-1.4-1.7-0.4-2.4
				C197.1,202.8,198.5,203,199,203.8z"/>
		</g>
		<path class="st0" d="M132.3,172.7c9-0.4,13.2,3.7,12.2,5.4c-1.7,3.1-10.3-0.2-12.4-1.4c-4.3-2.6-8.2-6.9-3-9
			c5.7-2.4,13.1,0.4,17.4,4.1c6.4,5.6,3.9,11.5-4.5,11.9c-5.9,0.3-12.8-2.5-17.1-6.5c-5.6-5.2-4.5-12.5,1.6-16.6
			c6.6-4.5,16.8-1.9,22.8,2.2c13.9,9.5,6.5,26.4-7.3,31.5c-10.7,4-26,1.3-35.2-3.6c-13.5-7.2-17.6-21.8-9.1-28.1
			c7.4-5.5,16.8,3.1,13.8,9.1c-1.3,2.6-4.5,3.7-7.2,3.2c-3.3-0.5-5.2-2.9-5-5.5c0.2-2.2,2.2-4.7,5-4.6c2.9,0.1,5.9,2.7,5.2,5.8
			c-0.5,2-2.5,3.1-4.2,3c-3.8-0.2-3.9-3.7-2.7-4.9c2.4-2.3,5,0.7,5,0.5c-0.4-2.9-6-3.3-6.9-0.1c-0.9,3,1.5,5.4,4.1,5.7
			c2.4,0.2,5-1.4,5.1-4.5c0.1-3.1-2.4-6.7-7.3-7c-3.9-0.3-7.6,4.1-8,6.8c-1.7,10.7,12,20.8,27,23.5c15.5,2.8,32.1-3.3,33.8-15.9
			c1.1-8.2-3.5-13.2-9-15.9c-6.4-3.2-14.9-4.1-20.2-0.1c-2.4,1.8-4.2,4.5-4.6,7.3c-1.4,11.4,24.9,19.8,27.1,9.9
			c0.5-2.1-1.1-4.4-3.2-6.3c-6.8-5.7-16.4-4.7-17.6-2.3c-0.8,1.6,1.6,4.5,5.1,6.3c7,3.6,12.5-1.1,0.4-2.6
			C128.9,173.3,130.1,173,132.3,172.7z"/>
	</g>
	<path class="st0" d="M14,166.7c1.1,4.1-7.8,2.5-5.7-2.4c2.1-4.9,11-3,11.2,2.4c0.2,5.9-5.1,8.7-10.4,7.2c-8-2.2-11.2-11.5-5-16.5
		c6-4.9,22.9,2.5,27.2,3.7c10.3,2.8,18.2-7,23.8-3.4c8.7,5.5,31.1,13.7,35.2,22.7c1,2.1-0.5,3.7-1.7,5.9c-1.5,2.9-1.2,6,2.1,8.1
		c2.2,1.4,6.2,1,8.5-0.6c3.1-2.1,2.6-7-1.1-8.3c-2-0.7-4.8,0.3-5.6,1.9c-1.2,2.4-0.3,5.6,2.1,4.4c0.7-0.3-1.8-1.3-1.2-2.6
		c1.2-2.6,3.9-1.7,4.8-0.3c0.5,0.8,0.2,2.3-0.6,3.1c-1.7,1.7-6.8,1.8-7.2-2.4c-0.4-4.5,4.4-5.8,7.8-4.6c5,1.7,4.3,6.5,1.1,9.4
		c-2.5,2.2-7.1,2.7-10.2,0.7c-2.7-1.7-4.3-6.8-0.3-10.8c8-8.1-43.9-11.4-36-17.9c3.7-3.1,3.2-6.4,2.1-7.5
		c-4.1-4.1-12.3,5.5-17.7,6.9c-5.7,1.8-10.2-5-16.7-7.8c-8.8-3.8-18.8-3.2-18.8,6.1c0,5.2,7.1,9.6,12.5,7.6
		C21.9,169,14.8,158.9,14,166.7L14,166.7z M88,178.8c-3.7-6.9-28.2-17.8-29.8-16.7c-0.4,0.3-0.7,2.3-1.7,3.7c-1.1,1.5-3,2.5-0.2,3.5
		c2.9,0.9,13.5,3.9,21.3,6.2C84.1,177.4,88.1,179,88,178.8z"/>
	<path class="st0" d="M369.3,55c-1.1-4.1,7.8-2.5,5.7,2.4c-2.1,4.9-11,3-11.2-2.4c-0.2-5.9,5.1-8.7,10.4-7.2c8,2.2,11.2,11.5,5,16.5
		c-6,4.9-22.9-2.5-27.2-3.7c-10.3-2.8-18.2,7-23.8,3.4c-8.7-5.5-31.1-13.7-35.2-22.7c-1-2.1,0.5-3.7,1.7-5.9c1.5-2.9,1.2-6-2.1-8.1
		c-2.2-1.4-6.2-1-8.5,0.6c-3.1,2.1-2.6,7,1.1,8.3c2,0.7,4.8-0.3,5.6-1.9c1.2-2.4,0.3-5.6-2.1-4.4c-0.7,0.3,1.8,1.3,1.2,2.6
		c-1.2,2.6-3.9,1.7-4.8,0.3c-0.5-0.8-0.2-2.3,0.6-3.1c1.7-1.7,6.8-1.8,7.2,2.4c0.4,4.5-4.4,5.8-7.8,4.6c-5-1.7-4.3-6.5-1.1-9.4
		c2.5-2.2,7.1-2.7,10.2-0.7c2.7,1.7,4.3,6.8,0.3,10.8c-8,8.1,43.9,11.4,36,17.9c-3.7,3.1-3.2,6.4-2.1,7.5c4.1,4.1,12.3-5.5,17.7-6.9
		c5.7-1.8,10.2,5,16.7,7.8c8.8,3.8,18.8,3.2,18.8-6.1c0-5.2-7.1-9.6-12.5-7.6C361.4,52.8,368.6,62.8,369.3,55L369.3,55z M295.3,42.9
		c3.7,6.9,28.2,17.8,29.8,16.8c0.4-0.3,0.7-2.3,1.7-3.7c1.1-1.5,3-2.5,0.2-3.5c-2.9-0.9-13.5-3.9-21.3-6.2
		C299.2,44.3,295.2,42.7,295.3,42.9z"/>
	<g>
		<path class="st0" d="M183.3,17.9c-0.9-1.6,2.8-3.7,4.5-3.9c5.1-0.8-1.3,8.3-8.7,8.1c-18.2-0.4,50.3-36.4,12.3-6.7
			c-16.7,13-3.6,52.8-24.5,25.7c-4.7-6.1-9.4-13.8-15.1-19.4c-6.3-6.2-13.7-8.8-20.8-7c-7.8,1.9-15,9-12.9,20.2
			c1.2,6.6,6.1,12.4,15.1,12.8c1.1,0.1,1.4,1.1,0.1,1.3c-17.4,0-19.6-19.5-13.2-28c4.7-6.3,15.2-11.2,27.2-4.3
			c7.8,4.4,13.4,12.5,19.2,20.1c20.8,27.2,7.8-8.5,25-21.8c25.7-19.9,2.1-8.6-9.4-0.2c-5,3.7-7.4,7.3-2.9,6.8c1.3-0.2,4-0.7,6-1.9
			c3.8-2.3,6.5-5.8,2.5-5.2c-1.1,0.2-2.8,1.3-3.8,2.1c-0.3,0.2,0.9-0.5,1.8-0.5c1.7,0,1.4,1.7,0.4,2.4
			C185.1,18.9,183.7,18.7,183.3,17.9z"/>
		<g>
			<path class="st0" d="M250.2,49.1c-9,0.4-13.2-3.7-12.2-5.4c1.7-3.1,10.3,0.2,12.4,1.4c4.3,2.5,8.2,6.9,3,9
				c-5.7,2.4-13.1-0.4-17.4-4.1c-6.4-5.6-3.9-11.5,4.5-11.9c5.9-0.3,12.8,2.5,17.1,6.5c5.6,5.2,4.5,12.5-1.6,16.6
				c-6.6,4.5-16.8,1.9-22.8-2.2c-13.9-9.5-6.5-26.3,7.3-31.5c10.7-4,26-1.3,35.2,3.6c13.5,7.2,17.6,21.8,9.1,28.1
				c-7.4,5.5-16.8-3.1-13.8-9.1c1.3-2.6,4.5-3.7,7.2-3.2c3.3,0.5,5.2,2.9,5,5.5c-0.2,2.2-2.2,4.7-5,4.6c-2.9-0.1-5.9-2.7-5.2-5.8
				c0.5-2,2.5-3.1,4.2-3c3.8,0.2,3.9,3.7,2.7,4.9c-2.4,2.3-5-0.7-5-0.5c0.4,2.9,6,3.3,6.9,0.1c0.9-3-1.5-5.4-4.1-5.6
				c-2.4-0.2-5,1.4-5.1,4.5c-0.1,3.1,2.4,6.7,7.3,7c3.9,0.3,7.6-4.1,8-6.8c1.7-10.7-12-20.8-27-23.5c-15.5-2.8-32.1,3.3-33.9,15.9
				c-1.1,8.2,3.5,13.2,9,15.9c6.4,3.2,14.9,4.1,20.2,0.1c2.4-1.8,4.2-4.5,4.6-7.3c1.4-11.4-24.9-19.8-27.1-9.9
				c-0.5,2.1,1.1,4.4,3.2,6.3c6.8,5.7,16.4,4.7,17.6,2.3c0.8-1.6-1.6-4.5-5.1-6.3c-7-3.6-12.5,1.1-0.4,2.6
				C253.6,48.4,252.5,48.8,250.2,49.1z"/>
			<path class="st0" d="M199,17.9c0.9-1.6-2.8-3.7-4.5-3.9c-5.1-0.8,1.3,8.3,8.7,8.1c18.2-0.4-50.3-36.4-12.3-6.7
				c16.7,13,3.6,52.8,24.5,25.7c4.7-6.1,9.4-13.8,15.1-19.4c6.3-6.2,13.7-8.8,20.8-7c7.8,1.9,15,9,12.9,20.2
				c-1.2,6.6-6.1,12.4-15.1,12.8c-1.1,0.1-1.4,1.1-0.1,1.3c17.4,0,19.6-19.5,13.2-28c-4.7-6.3-15.2-11.2-27.2-4.3
				c-7.8,4.4-13.4,12.5-19.2,20.1C195,64,208,28.3,190.8,15c-25.7-19.9-2.1-8.6,9.4-0.2c5.1,3.7,7.4,7.3,2.9,6.8
				c-1.3-0.2-4-0.7-6-1.9c-3.8-2.3-6.5-5.8-2.5-5.2c1.1,0.2,2.8,1.3,3.8,2.1c0.3,0.2-0.9-0.5-1.8-0.5c-1.7,0-1.4,1.7-0.4,2.4
				C197.1,18.9,198.5,18.7,199,17.9z"/>
		</g>
		<path class="st0" d="M132.3,49.1c9,0.4,13.2-3.7,12.2-5.4c-1.7-3.1-10.3,0.2-12.4,1.4c-4.3,2.5-8.2,6.9-3,9
			c5.7,2.4,13.1-0.4,17.4-4.1c6.4-5.6,3.9-11.5-4.5-11.9c-5.9-0.3-12.8,2.5-17.1,6.5c-5.6,5.2-4.5,12.5,1.6,16.6
			c6.6,4.5,16.8,1.9,22.8-2.2c13.9-9.5,6.5-26.3-7.3-31.5c-10.7-4-26-1.3-35.2,3.6c-13.5,7.2-17.6,21.8-9.1,28.1
			c7.4,5.5,16.8-3.1,13.8-9.1c-1.3-2.6-4.5-3.7-7.2-3.2c-3.3,0.5-5.2,2.9-5,5.5c0.2,2.2,2.2,4.7,5,4.6c2.9-0.1,5.9-2.7,5.2-5.8
			c-0.5-2-2.5-3.1-4.2-3c-3.8,0.2-3.9,3.7-2.7,4.9c2.4,2.3,5-0.7,5-0.5c-0.4,2.9-6,3.3-6.9,0.1c-0.9-3,1.5-5.4,4.1-5.6
			c2.4-0.2,5,1.4,5.1,4.5c0.1,3.1-2.4,6.7-7.3,7c-3.9,0.3-7.6-4.1-8-6.8c-1.7-10.7,12-20.8,27-23.5c15.5-2.8,32.1,3.3,33.8,15.9
			c1.1,8.2-3.5,13.2-9,15.9c-6.4,3.2-14.9,4.1-20.2,0.1c-2.4-1.8-4.2-4.5-4.6-7.3c-1.4-11.4,24.9-19.8,27.1-9.9
			c0.5,2.1-1.1,4.4-3.2,6.3c-6.8,5.7-16.4,4.7-17.6,2.3c-0.8-1.6,1.6-4.5,5.1-6.3c7-3.6,12.5,1.1,0.4,2.6
			C128.9,48.4,130.1,48.8,132.3,49.1z"/>
	</g>
	<path class="st0" d="M14,55c1.1-4.1-7.8-2.5-5.7,2.4c2.1,4.9,11,3,11.2-2.4c0.2-5.9-5.1-8.7-10.4-7.2c-8,2.2-11.2,11.5-5,16.5
		c6,4.9,22.9-2.5,27.2-3.7c10.3-2.8,18.2,7,23.8,3.4c8.7-5.5,31.1-13.7,35.2-22.7c1-2.1-0.5-3.7-1.7-5.9c-1.5-2.9-1.2-6,2.1-8.1
		c2.2-1.4,6.2-1,8.5,0.6c3.1,2.1,2.6,7-1.1,8.3c-2,0.7-4.8-0.3-5.6-1.9c-1.2-2.4-0.3-5.6,2.1-4.4c0.7,0.3-1.8,1.3-1.2,2.6
		c1.2,2.6,3.9,1.7,4.8,0.3c0.5-0.8,0.2-2.3-0.6-3.1c-1.7-1.7-6.8-1.8-7.2,2.4c-0.4,4.5,4.4,5.8,7.8,4.6c5-1.7,4.3-6.5,1.1-9.4
		c-2.5-2.2-7.1-2.7-10.2-0.7c-2.7,1.7-4.3,6.8-0.3,10.8c8,8.1-43.9,11.4-36,17.9c3.7,3.1,3.2,6.4,2.1,7.5
		c-4.1,4.1-12.3-5.5-17.7-6.9c-5.7-1.8-10.2,5-16.7,7.8c-8.8,3.8-18.8,3.2-18.8-6.1c0-5.2,7.1-9.6,12.5-7.6
		C21.9,52.8,14.8,62.8,14,55L14,55z M88,42.9c-3.7,6.9-28.2,17.8-29.8,16.8c-0.4-0.3-0.7-2.3-1.7-3.7c-1.1-1.5-3-2.5-0.2-3.5
		c2.9-0.9,13.5-3.9,21.3-6.2C84.1,44.3,88.1,42.7,88,42.9z"/>
	<g>
		<path class="st0" d="M378.5,122.4c2.3-1.6,2.9,5.6-0.4,4.8c-3.3-0.7-3.8-7.9-0.6-9.1c3.5-1.2,6.1,2.3,6.2,6.7
			c0.1,6.6-4.8,10.8-9,6.9c-4-3.7-2.6-18.2-2.7-21.6c-0.2-8.4-7.5-12.7-6.4-17.7c1.7-7.7,2.5-26.5,7.1-31.3c1.1-1.1,2.3-0.3,3.8,0.2
			c2,0.7,3.8-0.2,4.5-3.1c0.5-1.9-0.5-4.9-1.9-6.4c-1.8-2-4.7-0.7-4.7,2.3c0,1.7,1,3.6,2.2,4c1.6,0.5,3.4-0.8,2.2-2.4
			c-0.3-0.5-0.5,1.6-1.4,1.4c-1.8-0.4-1.7-2.7-1.1-3.6c0.4-0.5,1.3-0.6,2-0.1c1.3,1,2.3,4.9-0.1,6c-2.6,1.1-4.3-2.4-4.2-5.1
			c0.1-4.1,3.1-4.5,5.4-2.5c1.8,1.5,2.9,5,2.3,7.7c-0.5,2.4-3.3,4.5-6.4,2.2c-6.3-4.7,1.2,35.9-4.1,31c-2.5-2.3-4.4-1.3-4.8-0.3
			c-1.7,3.9,5.5,8.5,7.3,12.4c2.1,4-1.1,8.8-1.6,14.3c-0.6,7.5,1.5,15.1,7.1,13.4c3.1-0.9,4.4-7.2,2.3-11
			C378.4,115.9,373.7,123.2,378.5,122.4L378.5,122.4z M372.3,63.1c-3.5,4.1-5.5,25-4.6,26c0.3,0.3,1.5,0.1,2.5,0.6
			c1.1,0.6,2.1,1.8,2.1-0.5c0-2.4-0.2-11.1-0.2-17.5C372.2,66.4,372.4,63,372.3,63.1z"/>
		<path class="st0" d="M378.5,97.9c2.3,1.6,2.9-5.6-0.4-4.8c-3.3,0.7-3.8,7.9-0.6,9.1c3.5,1.2,6.1-2.3,6.2-6.7
			c0.1-6.6-4.8-10.8-9-6.9c-4,3.7-2.6,18.2-2.7,21.6c-0.2,8.4-7.5,12.7-6.4,17.7c1.7,7.7,2.5,26.5,7.1,31.3c1.1,1.1,2.3,0.3,3.8-0.2
			c2-0.7,3.8,0.2,4.5,3.1c0.5,1.9-0.5,4.9-1.9,6.4c-1.8,2-4.7,0.7-4.7-2.3c0-1.7,1-3.6,2.2-4c1.6-0.5,3.4,0.8,2.2,2.4
			c-0.3,0.5-0.5-1.6-1.4-1.4c-1.8,0.4-1.7,2.7-1.1,3.6c0.4,0.5,1.3,0.6,2,0.1c1.3-1,2.3-4.9-0.1-6c-2.6-1.1-4.3,2.4-4.2,5.1
			c0.1,4.1,3.1,4.5,5.4,2.5c1.8-1.5,2.9-5,2.3-7.7c-0.5-2.4-3.3-4.5-6.4-2.2c-6.3,4.7,1.2-35.9-4.1-31c-2.5,2.3-4.4,1.3-4.8,0.3
			c-1.7-3.9,5.5-8.5,7.3-12.4c2.1-4-1.1-8.8-1.6-14.3c-0.6-7.5,1.5-15.1,7.1-13.4c3.1,0.9,4.4,7.2,2.3,11
			C378.4,104.4,373.7,97,378.5,97.9L378.5,97.9z M372.3,157.2c-3.5-4.1-5.5-25-4.6-26c0.3-0.3,1.5-0.1,2.5-0.6
			c1.1-0.6,2.1-1.8,2.1,0.5c0,2.4-0.2,11.1-0.2,17.5C372.2,153.9,372.4,157.3,372.3,157.2z"/>
	</g>
	<g>
		<path class="st0" d="M4.9,122.4c-2.3-1.6-2.9,5.6,0.4,4.8c3.3-0.7,3.8-7.9,0.6-9.1c-3.5-1.2-6.1,2.3-6.2,6.7
			c-0.1,6.6,4.8,10.8,9,6.9c4-3.7,2.6-18.2,2.7-21.6c0.2-8.4,7.5-12.7,6.4-17.7C16,84.7,15.2,66,10.6,61.1c-1.1-1.1-2.3-0.3-3.8,0.2
			c-2,0.7-3.8-0.2-4.5-3.1c-0.5-1.9,0.5-4.9,1.9-6.4c1.8-2,4.7-0.7,4.7,2.3c0,1.7-1,3.6-2.2,4c-1.6,0.5-3.4-0.8-2.2-2.4
			c0.3-0.5,0.5,1.6,1.4,1.4c1.8-0.4,1.7-2.7,1.1-3.6c-0.4-0.5-1.3-0.6-2-0.1c-1.3,1-2.3,4.9,0.1,6c2.6,1.1,4.3-2.4,4.2-5.1
			c-0.1-4.1-3.1-4.5-5.4-2.5c-1.8,1.5-2.9,5-2.3,7.7c0.6,2.4,3.3,4.5,6.4,2.2c6.3-4.7-1.2,35.9,4.1,31c2.5-2.3,4.4-1.3,4.8-0.3
			c1.7,3.9-5.5,8.5-7.3,12.4c-2.1,4,1.1,8.8,1.6,14.3c0.6,7.5-1.5,15.1-7.1,13.4c-3.1-0.9-4.4-7.2-2.3-11
			C5,115.9,9.6,123.2,4.9,122.4L4.9,122.4z M11.1,63.1c3.5,4.1,5.5,25,4.6,26c-0.3,0.3-1.5,0.1-2.5,0.6c-1.1,0.6-2.1,1.8-2.1-0.5
			c0-2.4,0.2-11.1,0.2-17.5C11.2,66.4,11,63,11.1,63.1z"/>
		<path class="st0" d="M4.9,97.9c-2.3,1.6-2.9-5.6,0.4-4.8c3.3,0.7,3.8,7.9,0.6,9.1c-3.5,1.2-6.1-2.3-6.2-6.7
			c-0.1-6.6,4.8-10.8,9-6.9c4,3.7,2.6,18.2,2.7,21.6c0.2,8.4,7.5,12.7,6.4,17.7c-1.7,7.7-2.5,26.5-7.1,31.3
			c-1.1,1.1-2.3,0.3-3.8-0.2c-2-0.7-3.8,0.2-4.5,3.1c-0.5,1.9,0.5,4.9,1.9,6.4c1.8,2,4.7,0.7,4.7-2.3c0-1.7-1-3.6-2.2-4
			c-1.6-0.5-3.4,0.8-2.2,2.4c0.3,0.5,0.5-1.6,1.4-1.4c1.8,0.4,1.7,2.7,1.1,3.6c-0.4,0.5-1.3,0.6-2,0.1c-1.3-1-2.3-4.9,0.1-6
			c2.6-1.1,4.3,2.4,4.2,5.1c-0.1,4.1-3.1,4.5-5.4,2.5c-1.8-1.5-2.9-5-2.3-7.7c0.6-2.4,3.3-4.5,6.4-2.2c6.3,4.7-1.2-35.9,4.1-31
			c2.5,2.3,4.4,1.3,4.8,0.3c1.7-3.9-5.5-8.5-7.3-12.4c-2.1-4,1.1-8.8,1.6-14.3c0.6-7.5-1.5-15.1-7.1-13.4c-3.1,0.9-4.4,7.2-2.3,11
			C5,104.4,9.6,97,4.9,97.9L4.9,97.9z M11.1,157.2c3.5-4.1,5.5-25,4.6-26c-0.3-0.3-1.5-0.1-2.5-0.6c-1.1-0.6-2.1-1.8-2.1,0.5
			c0,2.4,0.2,11.1,0.2,17.5C11.2,153.9,11,157.3,11.1,157.2z"/>
	</g>
</g>
</svg>
