<?xml version="1.0" encoding="utf-8"?>
<!-- Generator: Adobe Illustrator 23.0.2, SVG Export Plug-In . SVG Version: 6.00 Build 0)  -->
<svg version="1.1" id="Layer_1" xmlns="http://www.w3.org/2000/svg" xmlns:xlink="http://www.w3.org/1999/xlink" x="0px" y="0px"
	 viewBox="0 0 223 221" style="enable-background:new 0 0 223 221;" xml:space="preserve">
<style type="text/css">
	.st0{fill:none;stroke:#FFFFFF;stroke-width:9;stroke-miterlimit:10;}
</style>
<g>
	<polygon class="st0" points="185.62,139.39 215.51,109.5 185.62,79.61 185.62,37.33 143.34,37.33 113.45,7.43 83.55,37.33 
		41.27,37.33 41.27,79.6 11.38,109.5 41.27,139.4 41.27,181.67 83.55,181.67 113.45,211.57 143.34,181.67 185.62,181.67 	"/>
	<polygon class="st0" points="174.97,134.98 200.45,109.5 174.97,84.02 174.97,47.98 138.93,47.98 113.45,22.49 87.96,47.98 
		51.92,47.98 51.92,84.02 26.44,109.5 51.92,134.98 51.92,171.02 87.96,171.02 113.45,196.51 138.93,171.02 174.97,171.02 	"/>
	<polygon class="st0" points="163.3,130.15 183.95,109.5 163.3,88.85 163.3,59.64 134.1,59.64 113.45,38.99 92.79,59.64 
		63.59,59.64 63.59,88.85 42.94,109.5 63.59,130.15 63.59,159.36 92.79,159.36 113.45,180.01 134.1,159.36 163.3,159.36 	"/>
</g>
</svg>
